<svg width="160" height="160" viewBox="0 0 160 160" fill="none" xmlns="http://www.w3.org/2000/svg">
<rect width="160" height="160" rx="6" fill="#F6F6F6"/>
<path fill-rule="evenodd" clip-rule="evenodd" d="M86.6693 71.2507C85.5187 71.2507 84.5859 72.1834 84.5859 73.334C84.5859 74.4846 85.5187 75.4173 86.6693 75.4173C87.8199 75.4173 88.7526 74.4846 88.7526 73.334C88.7526 72.1834 87.8199 71.2507 86.6693 71.2507ZM82.0859 73.334C82.0859 70.8027 84.138 68.7507 86.6693 68.7507C89.2006 68.7507 91.2526 70.8027 91.2526 73.334C91.2526 75.8653 89.2006 77.9173 86.6693 77.9173C84.138 77.9173 82.0859 75.8653 82.0859 73.334Z" fill="#BBBBBB"/>
<path fill-rule="evenodd" clip-rule="evenodd" d="M79.907 62.084H80.0982C83.9456 62.084 86.9606 62.0839 89.3131 62.4002C91.721 62.724 93.621 63.3995 95.1124 64.8909C96.6037 66.3822 97.2793 68.2823 97.603 70.6902C97.9193 73.0426 97.9193 76.0577 97.9193 79.905V80.0963C97.9193 83.9436 97.9193 86.9587 97.603 89.3111C97.2793 91.719 96.6037 93.6191 95.1124 95.1104C93.621 96.6018 91.721 97.2773 89.3131 97.6011C86.9606 97.9174 83.9456 97.9173 80.0982 97.9173H79.907C76.0597 97.9173 73.0446 97.9174 70.6921 97.6011C68.2842 97.2773 66.3842 96.6018 64.8928 95.1104C63.4015 93.6191 62.7259 91.719 62.4022 89.3111C62.0859 86.9587 62.0859 83.9436 62.0859 80.0963V79.905C62.0859 76.0577 62.0859 73.0426 62.4022 70.6902C62.7259 68.2823 63.4015 66.3822 64.8928 64.8909C66.3842 63.3995 68.2842 62.724 70.6921 62.4002C73.0446 62.0839 76.0597 62.084 79.907 62.084ZM66.6606 93.3427C65.7112 92.3932 65.1664 91.1087 64.8799 88.978C64.6241 87.0754 64.5909 84.6482 64.5866 81.4009L67.0784 79.2206C68.1019 78.325 69.6445 78.3763 70.6062 79.338L77.7557 86.4876C79.3306 88.0625 81.8098 88.2772 83.632 86.9966L84.129 86.6473C85.5593 85.6421 87.4944 85.7586 88.7938 86.928L94.1664 91.7633C94.2249 91.816 94.2869 91.862 94.3517 91.9016C94.0823 92.4698 93.7504 92.9368 93.3446 93.3427C92.3952 94.2921 91.1106 94.8369 88.98 95.1234C86.8133 95.4147 83.9663 95.4173 80.0026 95.4173C76.0389 95.4173 73.1919 95.4147 71.0252 95.1234C68.8946 94.8369 67.61 94.2921 66.6606 93.3427ZM71.0252 64.8779C68.8946 65.1644 67.61 65.7092 66.6606 66.6586C65.7112 67.6081 65.1664 68.8926 64.8799 71.0233C64.638 72.8224 64.5951 75.0908 64.5876 78.0781L65.4321 77.3391C67.4462 75.5768 70.4816 75.6779 72.374 77.5703L79.5235 84.7198C80.2394 85.4357 81.3662 85.5333 82.1945 84.9512L82.6915 84.6019C85.0754 82.9266 88.3006 83.1207 90.4663 85.0698L95.0895 89.2307C95.1019 89.1478 95.1138 89.0636 95.1253 88.978C95.4166 86.8114 95.4193 83.9644 95.4193 80.0007C95.4193 76.0369 95.4166 73.1899 95.1253 71.0233C94.8389 68.8926 94.294 67.6081 93.3446 66.6586C92.3952 65.7092 91.1106 65.1644 88.98 64.8779C86.8133 64.5866 83.9663 64.584 80.0026 64.584C76.0389 64.584 73.1919 64.5866 71.0252 64.8779Z" fill="#BBBBBB"/>
</svg>
