<svg width="140" height="80" viewBox="0 0 140 80" fill="none" xmlns="http://www.w3.org/2000/svg">
<path d="M79.9273 41.0571C78.6893 41.0144 77.6646 40.8863 76.8535 40.6728C76.085 40.4167 75.466 40.0751 74.9963 39.6482C74.5267 39.1786 74.1852 38.6023 73.9717 37.9192C73.8009 37.1934 73.6942 36.3395 73.6515 35.3576C73.6515 34.9734 73.6302 34.3543 73.5875 33.5005C73.5875 32.6039 73.5875 31.622 73.5875 30.5547C73.5875 29.4447 73.5661 28.292 73.5234 27.0966C73.5234 25.9012 73.5234 24.7485 73.5234 23.6385C73.5234 22.5285 73.5234 21.5465 73.5234 20.6927C73.5234 19.8388 73.5234 19.1984 73.5234 18.7715C73.5234 17.1919 73.9504 16.0178 74.8042 15.2494C75.7008 14.4382 76.7894 14.0326 78.0702 14.0326C79.4364 14.0326 80.5464 14.4382 81.4002 15.2494C82.2968 16.0178 82.7451 17.2132 82.7451 18.8355V21.3331C83.5562 21.3331 84.5168 21.3331 85.6268 21.3331C86.7368 21.3331 87.8682 21.3331 89.0209 21.3331C90.1736 21.3331 91.3049 21.3331 92.4149 21.3331C93.525 21.3331 94.4855 21.3331 95.2967 21.3331V18.4513C95.2967 16.9571 95.745 15.8471 96.6415 15.1213C97.5381 14.3955 98.6481 14.0326 99.9715 14.0326C101.252 14.0326 102.341 14.3742 103.238 15.0572C104.134 15.7403 104.582 16.7863 104.582 18.1952C104.582 18.7502 104.582 19.8388 104.582 21.4611C104.625 23.0408 104.646 24.7485 104.646 26.5843C104.646 28.42 104.646 30.1704 104.646 31.8355C104.646 33.4578 104.625 34.5891 104.582 35.2295C104.54 36.2115 104.412 37.0653 104.198 37.7911C103.985 38.4742 103.622 39.0505 103.109 39.5201C102.597 39.9471 101.893 40.2886 100.996 40.5448C100.1 40.8009 98.9256 40.9503 97.474 40.993C96.364 41.0784 95.0619 41.1425 93.5676 41.1852C92.1161 41.1852 90.6005 41.2065 89.0209 41.2492C87.4839 41.2492 85.9257 41.2492 84.346 41.2492C82.7664 41.2065 81.2935 41.1425 79.9273 41.0571ZM82.7451 32.2197C82.7877 32.9028 82.9158 33.3084 83.1293 33.4364C83.3428 33.5645 83.8124 33.6499 84.5381 33.6926C85.9043 33.7353 87.3559 33.7566 88.8928 33.7566C90.4297 33.7566 91.8172 33.7139 93.0553 33.6286C93.525 33.5859 93.9092 33.5645 94.208 33.5645C94.5069 33.5218 94.7417 33.4791 94.9125 33.4364C95.0832 33.3511 95.19 33.223 95.2327 33.0522C95.318 32.8387 95.3607 32.5612 95.3607 32.2197V28.3133C94.5496 28.3133 93.589 28.3133 92.479 28.3133C91.369 28.2706 90.2163 28.2493 89.0209 28.2493C87.8682 28.2493 86.7368 28.2706 85.6268 28.3133C84.5168 28.3133 83.5562 28.3133 82.7451 28.3133V32.2197ZM90.878 55.2097C90.878 53.2885 91.2195 51.5595 91.9026 50.0225C92.6284 48.4856 93.6103 47.1835 94.8484 46.1162C96.1292 45.0488 97.6661 44.2377 99.4592 43.6827C101.252 43.1277 103.238 42.8502 105.415 42.8502C107.421 42.8502 109.257 43.1277 110.922 43.6827C112.63 44.2377 114.081 45.0488 115.277 46.1162C116.515 47.1835 117.476 48.4856 118.159 50.0225C118.842 51.5168 119.183 53.2458 119.183 55.2097C119.183 56.9601 118.863 58.5824 118.223 60.0767C117.625 61.5709 116.728 62.873 115.533 63.983C114.338 65.0931 112.886 65.9683 111.178 66.6086C109.513 67.249 107.592 67.5692 105.415 67.5692C103.238 67.5692 101.252 67.249 99.4592 66.6086C97.7088 65.9683 96.1932 65.0931 94.9125 63.983C93.6317 62.873 92.6284 61.5709 91.9026 60.0767C91.2195 58.5824 90.878 56.9601 90.878 55.2097ZM100.356 55.0816C100.356 56.3197 100.804 57.3443 101.701 58.1555C102.597 58.924 103.771 59.3082 105.223 59.3082C106.717 59.3082 107.912 58.924 108.809 58.1555C109.748 57.3443 110.218 56.3197 110.218 55.0816C110.218 53.7155 109.77 52.6695 108.873 51.9437C107.976 51.1752 106.76 50.791 105.223 50.791C103.771 50.791 102.597 51.1539 101.701 51.8797C100.804 52.5627 100.356 53.6301 100.356 55.0816ZM113.484 17.875C113.398 16.0819 113.74 14.737 114.508 13.8405C115.32 12.9013 116.515 12.4316 118.095 12.4316C119.546 12.4316 120.72 12.8799 121.617 13.7765C122.556 14.6303 123.068 16.0819 123.154 18.1311C123.239 20.3084 123.282 22.251 123.282 23.9587C123.324 25.6237 123.346 27.2033 123.346 28.6975C123.346 30.1491 123.324 31.5366 123.282 32.8601C123.282 34.1836 123.26 35.5497 123.218 36.9586C123.132 39.0078 122.684 40.6302 121.873 41.8255C121.062 43.0209 119.845 43.6186 118.223 43.6186C116.6 43.6186 115.405 43.149 114.636 42.2098C113.911 41.2278 113.612 39.6482 113.74 37.4709C113.783 36.3609 113.804 35.0161 113.804 33.4364C113.847 31.8568 113.847 30.1918 113.804 28.4414C113.804 26.6483 113.761 24.8339 113.676 22.9981C113.633 21.1623 113.569 19.4546 113.484 17.875Z" fill="#1B92FF"/>
<path d="M44.134 67.1847C42.8959 67.1847 41.7218 66.7578 40.6118 65.904C39.5445 65.0501 38.9682 63.7907 38.8828 62.1257C38.8828 61.6133 38.8614 60.9943 38.8187 60.2685C38.8187 59.5428 38.7974 58.7529 38.7547 57.8991C38.7547 57.0452 38.7547 56.1487 38.7547 55.2094C38.7547 54.2702 38.7547 53.331 38.7547 52.3917C35.6381 52.349 32.607 52.285 29.6612 52.1996C26.7581 52.1142 24.1325 51.9648 21.7844 51.7513C19.8205 51.5806 18.4543 51.111 17.6859 50.3425C16.9174 49.5313 16.5759 48.5067 16.6612 47.2686C16.7466 46.0305 17.1522 45.0272 17.878 44.2588C18.6465 43.4476 20.0553 43.0847 22.1046 43.1701C25.5627 43.2982 29.1489 43.4049 32.8631 43.4903C36.6201 43.533 40.3557 43.5543 44.0699 43.5543C47.8269 43.5543 51.5412 43.533 55.2127 43.4903C58.8843 43.4049 62.3851 43.2768 65.7151 43.1061C67.8925 43.0207 69.408 43.4263 70.2619 44.3228C71.1584 45.1767 71.6067 46.2653 71.6067 47.5888C71.6067 48.8269 71.2652 49.7875 70.5821 50.4706C69.9417 51.111 68.8103 51.5165 67.188 51.6873C65.3095 51.9008 62.812 52.0715 59.6955 52.1996C56.6216 52.285 53.2489 52.349 49.5773 52.3917C49.5346 53.7579 49.4919 55.1668 49.4492 56.6183C49.4492 58.0272 49.4492 59.3079 49.4492 60.4606C49.4492 61.6133 49.2784 62.5953 48.9369 63.4064C48.6381 64.2603 48.2325 64.9647 47.7202 65.5197C47.2505 66.0747 46.6955 66.4803 46.0551 66.7365C45.4148 67.0353 44.7744 67.1847 44.134 67.1847ZM22.3607 30.6185C22.3607 28.9961 22.3607 27.6513 22.3607 26.584C22.3607 25.5167 22.3607 24.5988 22.3607 23.8303C22.4034 23.0192 22.4248 22.2934 22.4248 21.653C22.4674 21.0126 22.5315 20.2868 22.6169 19.4757C22.745 18.0668 23.1932 17.0209 23.9617 16.3378C24.7302 15.612 25.9896 15.2278 27.74 15.1851C30.4296 15.1424 33.1833 15.0997 36.001 15.057C38.8614 15.0143 41.7005 14.993 44.5182 14.993C47.3359 14.9503 50.0896 14.9503 52.7792 14.993C55.4689 14.993 58.0091 15.057 60.3999 15.1851C62.1503 15.2705 63.4097 15.6547 64.1782 16.3378C64.9467 17.0209 65.3949 18.0668 65.523 19.4757C65.5657 20.2868 65.6084 21.0126 65.6511 21.653C65.6938 22.2934 65.7151 23.0192 65.7151 23.8303C65.7578 24.5988 65.7792 25.5167 65.7792 26.584C65.7792 27.6513 65.7792 28.9961 65.7792 30.6185C65.7792 32.1554 65.6724 33.4575 65.459 34.5249C65.2882 35.5495 64.904 36.4033 64.3063 37.0864C63.7086 37.7268 62.8547 38.2178 61.7447 38.5593C60.6347 38.9008 59.1405 39.1357 57.262 39.2637C55.6397 39.3491 53.7398 39.4132 51.5625 39.4559C49.3852 39.4985 47.1011 39.5199 44.7103 39.5199C42.3195 39.5199 39.9074 39.4985 37.4739 39.4559C35.0831 39.4132 32.8845 39.3705 30.8779 39.3278C28.9994 39.2851 27.5052 39.093 26.3952 38.7514C25.2852 38.4099 24.4313 37.8976 23.8336 37.2145C23.2359 36.4887 22.8303 35.5922 22.6169 34.5249C22.4461 33.4575 22.3607 32.1554 22.3607 30.6185ZM32.0306 24.7909C31.9879 25.6021 31.9666 26.2638 31.9666 26.7761C32.0093 27.2457 32.052 27.8861 32.0946 28.6973C32.18 29.5938 32.3721 30.1915 32.671 30.4904C33.0125 30.7892 33.6743 30.96 34.6562 31.0027C35.8943 31.0454 37.3245 31.0881 38.9468 31.1308C40.6118 31.1308 42.2982 31.1308 44.0059 31.1308C45.7563 31.1308 47.464 31.1308 49.129 31.1308C50.794 31.0881 52.2456 31.0454 53.4837 31.0027C54.4656 30.96 55.106 30.7892 55.4048 30.4904C55.7464 30.1915 55.9599 29.5938 56.0452 28.6973C56.0879 27.8861 56.1093 27.2457 56.1093 26.7761C56.152 26.2638 56.152 25.6021 56.1093 24.7909C56.0666 24.3213 55.9599 24.0011 55.7891 23.8303C55.661 23.6596 55.3195 23.5528 54.7645 23.5101C53.6544 23.4248 52.1175 23.3821 50.1536 23.3821C48.2325 23.3394 46.2046 23.318 44.0699 23.318C41.978 23.318 39.9501 23.3394 37.9862 23.3821C36.0224 23.4248 34.4854 23.4675 33.3754 23.5101C32.8204 23.5528 32.4575 23.6596 32.2868 23.8303C32.1587 24.0011 32.0733 24.3213 32.0306 24.7909Z" fill="#1B92FF"/>
</svg>
