<svg width="206" height="80" viewBox="0 0 206 80" fill="none" xmlns="http://www.w3.org/2000/svg">
<circle cx="32" cy="35.5996" r="32" fill="#1B92FF"/>
<mask id="mask0_1_54215" style="mask-type:alpha" maskUnits="userSpaceOnUse" x="32" y="3" width="32" height="74">
<rect width="32" height="72.8" transform="matrix(1 0 0 -1 32 76.4004)" fill="#D9D9D9"/>
</mask>
<g mask="url(#mask0_1_54215)">
<path d="M0 35.5996C0 61.9996 32 76.3996 32 76.3996C32 76.3996 64 61.9996 64 35.5996C64 17.9265 49.6731 3.59961 32 3.59961C14.3269 3.59961 0 17.9265 0 35.5996Z" fill="#1B92FF"/>
</g>
<rect x="40.0625" y="23.4531" width="8.96" height="24.32" rx="4.48" fill="#E9F4FF"/>
<rect x="24.5078" y="23.498" width="8.96" height="24.32" rx="4.48" fill="#E9F4FF"/>
<rect opacity="0.8" x="29" y="21.623" width="8.96" height="30.8215" rx="4.48" transform="rotate(45.4799 29 21.623)" fill="#E9F4FF"/>
<rect opacity="0.8" x="50.7812" y="31.0684" width="8.83689" height="17.4077" rx="4.41844" transform="rotate(45.4799 50.7812 31.0684)" fill="#E9F4FF"/>
<rect opacity="0.8" x="44.5625" y="21.5781" width="9.06325" height="30.7102" rx="4.53162" transform="rotate(45.4799 44.5625 21.5781)" fill="#E9F4FF"/>
<path d="M145.927 41.0571C144.689 41.0144 143.665 40.8863 142.853 40.6728C142.085 40.4167 141.466 40.0751 140.996 39.6482C140.527 39.1786 140.185 38.6023 139.972 37.9192C139.801 37.1934 139.694 36.3395 139.652 35.3576C139.652 34.9734 139.63 34.3543 139.587 33.5005C139.587 32.6039 139.587 31.622 139.587 30.5547C139.587 29.4447 139.566 28.292 139.523 27.0966C139.523 25.9012 139.523 24.7485 139.523 23.6385C139.523 22.5285 139.523 21.5465 139.523 20.6927C139.523 19.8388 139.523 19.1984 139.523 18.7715C139.523 17.1919 139.95 16.0178 140.804 15.2494C141.701 14.4382 142.789 14.0326 144.07 14.0326C145.436 14.0326 146.546 14.4382 147.4 15.2494C148.297 16.0178 148.745 17.2132 148.745 18.8355V21.3331C149.556 21.3331 150.517 21.3331 151.627 21.3331C152.737 21.3331 153.868 21.3331 155.021 21.3331C156.174 21.3331 157.305 21.3331 158.415 21.3331C159.525 21.3331 160.486 21.3331 161.297 21.3331V18.4513C161.297 16.9571 161.745 15.8471 162.642 15.1213C163.538 14.3955 164.648 14.0326 165.972 14.0326C167.252 14.0326 168.341 14.3742 169.238 15.0572C170.134 15.7403 170.582 16.7863 170.582 18.1952C170.582 18.7502 170.582 19.8388 170.582 21.4611C170.625 23.0408 170.646 24.7485 170.646 26.5843C170.646 28.42 170.646 30.1704 170.646 31.8355C170.646 33.4578 170.625 34.5891 170.582 35.2295C170.54 36.2115 170.412 37.0653 170.198 37.7911C169.985 38.4742 169.622 39.0505 169.109 39.5201C168.597 39.9471 167.893 40.2886 166.996 40.5448C166.1 40.8009 164.926 40.9503 163.474 40.993C162.364 41.0784 161.062 41.1425 159.568 41.1852C158.116 41.1852 156.601 41.2065 155.021 41.2492C153.484 41.2492 151.926 41.2492 150.346 41.2492C148.766 41.2065 147.294 41.1425 145.927 41.0571ZM148.745 32.2197C148.788 32.9028 148.916 33.3084 149.129 33.4364C149.343 33.5645 149.812 33.6499 150.538 33.6926C151.904 33.7353 153.356 33.7566 154.893 33.7566C156.43 33.7566 157.817 33.7139 159.055 33.6286C159.525 33.5859 159.909 33.5645 160.208 33.5645C160.507 33.5218 160.742 33.4791 160.912 33.4364C161.083 33.3511 161.19 33.223 161.233 33.0522C161.318 32.8387 161.361 32.5612 161.361 32.2197V28.3133C160.55 28.3133 159.589 28.3133 158.479 28.3133C157.369 28.2706 156.216 28.2493 155.021 28.2493C153.868 28.2493 152.737 28.2706 151.627 28.3133C150.517 28.3133 149.556 28.3133 148.745 28.3133V32.2197ZM156.878 55.2097C156.878 53.2885 157.22 51.5595 157.903 50.0225C158.628 48.4856 159.61 47.1835 160.848 46.1162C162.129 45.0488 163.666 44.2377 165.459 43.6827C167.252 43.1277 169.238 42.8502 171.415 42.8502C173.421 42.8502 175.257 43.1277 176.922 43.6827C178.63 44.2377 180.081 45.0488 181.277 46.1162C182.515 47.1835 183.476 48.4856 184.159 50.0225C184.842 51.5168 185.183 53.2458 185.183 55.2097C185.183 56.9601 184.863 58.5824 184.223 60.0767C183.625 61.5709 182.728 62.873 181.533 63.983C180.338 65.0931 178.886 65.9683 177.178 66.6086C175.513 67.249 173.592 67.5692 171.415 67.5692C169.238 67.5692 167.252 67.249 165.459 66.6086C163.709 65.9683 162.193 65.0931 160.912 63.983C159.632 62.873 158.628 61.5709 157.903 60.0767C157.22 58.5824 156.878 56.9601 156.878 55.2097ZM166.356 55.0816C166.356 56.3197 166.804 57.3443 167.701 58.1555C168.597 58.924 169.771 59.3082 171.223 59.3082C172.717 59.3082 173.912 58.924 174.809 58.1555C175.748 57.3443 176.218 56.3197 176.218 55.0816C176.218 53.7155 175.77 52.6695 174.873 51.9437C173.976 51.1752 172.76 50.791 171.223 50.791C169.771 50.791 168.597 51.1539 167.701 51.8797C166.804 52.5627 166.356 53.6301 166.356 55.0816ZM179.484 17.875C179.398 16.0819 179.74 14.737 180.508 13.8405C181.32 12.9013 182.515 12.4316 184.095 12.4316C185.546 12.4316 186.72 12.8799 187.617 13.7765C188.556 14.6303 189.068 16.0819 189.154 18.1311C189.239 20.3084 189.282 22.251 189.282 23.9587C189.324 25.6237 189.346 27.2033 189.346 28.6975C189.346 30.1491 189.324 31.5366 189.282 32.8601C189.282 34.1836 189.26 35.5497 189.218 36.9586C189.132 39.0078 188.684 40.6302 187.873 41.8255C187.062 43.0209 185.845 43.6186 184.223 43.6186C182.6 43.6186 181.405 43.149 180.636 42.2098C179.911 41.2278 179.612 39.6482 179.74 37.4709C179.783 36.3609 179.804 35.0161 179.804 33.4364C179.847 31.8568 179.847 30.1918 179.804 28.4414C179.804 26.6483 179.761 24.8339 179.676 22.9981C179.633 21.1623 179.569 19.4546 179.484 17.875Z" fill="#1B92FF"/>
<path d="M110.134 67.1847C108.896 67.1847 107.722 66.7578 106.612 65.904C105.545 65.0501 104.968 63.7907 104.883 62.1257C104.883 61.6133 104.861 60.9943 104.819 60.2685C104.819 59.5428 104.797 58.7529 104.755 57.8991C104.755 57.0452 104.755 56.1487 104.755 55.2094C104.755 54.2702 104.755 53.331 104.755 52.3917C101.638 52.349 98.607 52.285 95.6612 52.1996C92.7581 52.1142 90.1325 51.9648 87.7844 51.7513C85.8205 51.5806 84.4543 51.111 83.6859 50.3425C82.9174 49.5313 82.5759 48.5067 82.6612 47.2686C82.7466 46.0305 83.1522 45.0272 83.878 44.2588C84.6465 43.4476 86.0553 43.0847 88.1046 43.1701C91.5627 43.2982 95.1489 43.4049 98.8631 43.4903C102.62 43.533 106.356 43.5543 110.07 43.5543C113.827 43.5543 117.541 43.533 121.213 43.4903C124.884 43.4049 128.385 43.2768 131.715 43.1061C133.892 43.0207 135.408 43.4263 136.262 44.3228C137.158 45.1767 137.607 46.2653 137.607 47.5888C137.607 48.8269 137.265 49.7875 136.582 50.4706C135.942 51.111 134.81 51.5165 133.188 51.6873C131.31 51.9008 128.812 52.0715 125.695 52.1996C122.622 52.285 119.249 52.349 115.577 52.3917C115.535 53.7579 115.492 55.1668 115.449 56.6183C115.449 58.0272 115.449 59.3079 115.449 60.4606C115.449 61.6133 115.278 62.5953 114.937 63.4064C114.638 64.2603 114.232 64.9647 113.72 65.5197C113.251 66.0747 112.696 66.4803 112.055 66.7365C111.415 67.0353 110.774 67.1847 110.134 67.1847ZM88.3607 30.6185C88.3607 28.9961 88.3607 27.6513 88.3607 26.584C88.3607 25.5167 88.3607 24.5988 88.3607 23.8303C88.4034 23.0192 88.4248 22.2934 88.4248 21.653C88.4674 21.0126 88.5315 20.2868 88.6169 19.4757C88.745 18.0668 89.1932 17.0209 89.9617 16.3378C90.7302 15.612 91.9896 15.2278 93.74 15.1851C96.4296 15.1424 99.1833 15.0997 102.001 15.057C104.861 15.0143 107.7 14.993 110.518 14.993C113.336 14.9503 116.09 14.9503 118.779 14.993C121.469 14.993 124.009 15.057 126.4 15.1851C128.15 15.2705 129.41 15.6547 130.178 16.3378C130.947 17.0209 131.395 18.0668 131.523 19.4757C131.566 20.2868 131.608 21.0126 131.651 21.653C131.694 22.2934 131.715 23.0192 131.715 23.8303C131.758 24.5988 131.779 25.5167 131.779 26.584C131.779 27.6513 131.779 28.9961 131.779 30.6185C131.779 32.1554 131.672 33.4575 131.459 34.5249C131.288 35.5495 130.904 36.4033 130.306 37.0864C129.709 37.7268 128.855 38.2178 127.745 38.5593C126.635 38.9008 125.14 39.1357 123.262 39.2637C121.64 39.3491 119.74 39.4132 117.563 39.4559C115.385 39.4985 113.101 39.5199 110.71 39.5199C108.32 39.5199 105.907 39.4985 103.474 39.4559C101.083 39.4132 98.8845 39.3705 96.8779 39.3278C94.9994 39.2851 93.5052 39.093 92.3952 38.7514C91.2852 38.4099 90.4313 37.8976 89.8336 37.2145C89.2359 36.4887 88.8303 35.5922 88.6169 34.5249C88.4461 33.4575 88.3607 32.1554 88.3607 30.6185ZM98.0306 24.7909C97.9879 25.6021 97.9666 26.2638 97.9666 26.7761C98.0093 27.2457 98.052 27.8861 98.0946 28.6973C98.18 29.5938 98.3721 30.1915 98.671 30.4904C99.0125 30.7892 99.6743 30.96 100.656 31.0027C101.894 31.0454 103.324 31.0881 104.947 31.1308C106.612 31.1308 108.298 31.1308 110.006 31.1308C111.756 31.1308 113.464 31.1308 115.129 31.1308C116.794 31.0881 118.246 31.0454 119.484 31.0027C120.466 30.96 121.106 30.7892 121.405 30.4904C121.746 30.1915 121.96 29.5938 122.045 28.6973C122.088 27.8861 122.109 27.2457 122.109 26.7761C122.152 26.2638 122.152 25.6021 122.109 24.7909C122.067 24.3213 121.96 24.0011 121.789 23.8303C121.661 23.6596 121.319 23.5528 120.764 23.5101C119.654 23.4248 118.118 23.3821 116.154 23.3821C114.232 23.3394 112.205 23.318 110.07 23.318C107.978 23.318 105.95 23.3394 103.986 23.3821C102.022 23.4248 100.485 23.4675 99.3754 23.5101C98.8204 23.5528 98.4575 23.6596 98.2868 23.8303C98.1587 24.0011 98.0733 24.3213 98.0306 24.7909Z" fill="#1B92FF"/>
</svg>
