<svg fill="#737373" xmlns="http://www.w3.org/2000/svg"  viewBox="0 0 512 512" width="64px" height="64px"><path d="M 236.01758 39.908203 C 180.32633 39.905578 124.63058 54.424703 81.892578 83.470703 C -13.633422 148.3927 -3.441625 256.68664 100.35938 313.05664 C 93.759375 326.78064 80.996547 347.97409 60.560547 361.24609 C 57.240547 363.40309 55.504766 367.31656 56.134766 371.22656 C 56.764766 375.13656 59.642656 378.30459 63.472656 379.30859 C 63.906656 379.42159 74.274203 382.0918 89.783203 382.0918 C 115.7832 382.0918 153.08377 374.89814 185.63477 341.36914 C 185.90177 341.41214 186.17827 341.44919 186.44727 341.49219 C 187.57427 370.00019 204.06283 396.4357 233.17383 416.2207 C 272.86183 443.1947 326.86484 451.61066 374.83984 444.22266 C 397.76184 467.12966 423.79134 472.0918 442.02734 472.0918 L 442.0293 472.0918 C 452.9333 472.0918 460.17094 470.27731 460.96094 470.07031 C 464.78994 469.06631 467.66588 465.89728 468.29688 461.98828 C 468.92587 458.07928 467.18914 454.16577 463.86914 452.00977 C 451.61614 444.05177 443.50794 431.6973 438.83594 422.6543 C 474.81894 402.2243 496.00781 371.24942 496.00781 338.35742 C 496.00781 305.05042 474.50006 273.97969 437.91406 253.55469 C 471.36306 199.73369 460.00014 130.9637 390.11914 83.470703 C 347.39514 54.435203 291.70883 39.910828 236.01758 39.908203 z M 236.00586 59.904297 C 287.77011 59.904547 339.53445 73.273719 378.87695 100.01172 C 415.71695 125.04872 436.00586 157.9512 436.00586 192.6582 C 436.00586 213.1912 429.0342 232.91711 415.2832 251.28711 C 381.0752 296.98811 312.38086 325.38086 236.00586 325.38086 C 223.26486 325.38086 210.44162 324.55659 197.89062 322.93359 C 192.98562 322.29959 188.23911 321.57058 183.78711 320.76758 C 180.38611 320.15258 176.90784 321.3402 174.58984 323.9082 C 146.50384 355.0202 113.69063 361.89889 90.765625 362.08789 C 107.64562 344.80989 117.59694 324.59437 122.58594 312.23438 C 124.54794 307.37237 122.42189 301.81972 117.71289 299.51172 C 66.550891 274.43572 36.005859 234.4892 36.005859 192.6582 C 36.005859 157.9502 56.295766 125.04872 93.134766 100.01172 C 132.47827 73.272719 184.24161 59.904047 236.00586 59.904297 z M 171.00781 159.9375 C 157.22281 159.9375 146.00781 171.1525 146.00781 184.9375 C 146.00781 198.7225 157.22281 209.9375 171.00781 209.9375 C 184.79281 209.9375 196.00781 198.7225 196.00781 184.9375 C 196.00781 171.1525 184.79281 159.9375 171.00781 159.9375 z M 231.00781 159.9375 C 217.22281 159.9375 206.00781 171.1525 206.00781 184.9375 C 206.00781 198.7225 217.22281 209.9375 231.00781 209.9375 C 244.79281 209.9375 256.00781 198.7225 256.00781 184.9375 C 256.00781 171.1525 244.79281 159.9375 231.00781 159.9375 z M 291.00781 159.9375 C 277.22281 159.9375 266.00781 171.1525 266.00781 184.9375 C 266.00781 198.7225 277.22281 209.9375 291.00781 209.9375 C 304.79281 209.9375 316.00781 198.7225 316.00781 184.9375 C 316.00781 171.1525 304.79281 159.9375 291.00781 159.9375 z M 171.00781 179.9375 C 173.76481 179.9375 176.00781 182.1805 176.00781 184.9375 C 176.00781 187.6945 173.76481 189.9375 171.00781 189.9375 C 168.25081 189.9375 166.00781 187.6945 166.00781 184.9375 C 166.00781 182.1805 168.25081 179.9375 171.00781 179.9375 z M 231.00781 179.9375 C 233.76481 179.9375 236.00781 182.1805 236.00781 184.9375 C 236.00781 187.6945 233.76481 189.9375 231.00781 189.9375 C 228.25081 189.9375 226.00781 187.6945 226.00781 184.9375 C 226.00781 182.1805 228.25081 179.9375 231.00781 179.9375 z M 291.00781 179.9375 C 293.76481 179.9375 296.00781 182.1805 296.00781 184.9375 C 296.00781 187.6945 293.76481 189.9375 291.00781 189.9375 C 288.25081 189.9375 286.00781 187.6945 286.00781 184.9375 C 286.00781 182.1805 288.25081 179.9375 291.00781 179.9375 z M 426.07031 269.85547 C 457.49031 286.68847 476.00781 311.88742 476.00781 338.35742 C 476.00781 365.99042 455.59534 392.49391 421.40234 409.25391 C 416.69434 411.56191 414.5673 417.11261 416.5293 421.97461 C 419.5323 429.41561 425.0763 440.87159 434.0293 451.68359 C 419.6563 450.20459 401.63261 444.2672 385.84961 426.7832 C 383.49061 424.1702 379.98134 423.03953 376.65234 423.64453 C 332.78834 431.55253 281.41502 424.82373 244.41602 399.67773 C 221.92302 384.39073 208.6982 364.80744 206.6582 344.02344 C 233.3132 346.46644 260.63759 345.64611 287.68359 341.16211 C 338.92059 332.67611 392.53131 309.82247 426.07031 269.85547 z"/></svg>