<svg width="242" height="216" viewBox="0 0 242 216" fill="none" xmlns="http://www.w3.org/2000/svg">
<rect x="71.8047" y="31.5996" width="128" height="152" rx="9.6" fill="#E9F4FF"/>
<rect x="92.6016" y="137.201" width="86.4" height="6.4" rx="3.2" fill="#B1D7F9"/>
<rect x="92.6016" y="154.801" width="41.6" height="6.4" rx="3.2" fill="#B1D7F9"/>
<circle cx="135.805" cy="70" r="16" fill="#B1D7F9"/>
<path d="M106.203 106.801C106.203 97.9642 113.367 90.8008 122.203 90.8008H148.603C157.44 90.8008 164.603 97.9642 164.603 106.801V114.801C164.603 119.219 161.021 122.801 156.603 122.801H114.203C109.785 122.801 106.203 119.219 106.203 114.801V106.801Z" fill="#B1D7F9"/>
<circle cx="93.375" cy="68.2826" r="48" transform="rotate(45 93.375 68.2826)" fill="#DEDEDE"/>
<circle cx="93.375" cy="68.2824" r="38.4" transform="rotate(45 93.375 68.2824)" fill="white"/>
<rect x="61.6953" y="90.9102" width="12.8" height="44.8" rx="6.4" transform="rotate(45 61.6953 90.9102)" fill="#DEDEDE"/>
<mask id="mask0_1_54067" style="mask-type:alpha" maskUnits="userSpaceOnUse" x="54" y="29" width="78" height="78">
<circle cx="93.3047" cy="68.3058" r="38.4" transform="rotate(45 93.3047 68.3058)" fill="white"/>
</mask>
<g mask="url(#mask0_1_54067)">
<mask id="mask1_1_54067" style="mask-type:alpha" maskUnits="userSpaceOnUse" x="32" y="20" width="110" height="109">
<circle cx="93.375" cy="68.2826" r="48" transform="rotate(45 93.375 68.2826)" fill="#DEDEDE"/>
<circle cx="93.375" cy="68.2824" r="38.4" transform="rotate(45 93.375 68.2824)" fill="#E9F4FF"/>
<rect x="61.6953" y="90.9102" width="12.8" height="44.8" rx="6.4" transform="rotate(45 61.6953 90.9102)" fill="#DEDEDE"/>
</mask>
<g mask="url(#mask1_1_54067)">
<circle cx="93.4" cy="68.4" r="38.4" fill="#E9F4FF"/>
<circle cx="132.197" cy="56.8004" r="20.4" fill="#B1D7F9"/>
<path d="M94.2031 98.8008C94.2031 89.9642 101.367 82.8008 110.203 82.8008H152.603C161.44 82.8008 168.603 89.9642 168.603 98.8008V115.601C168.603 120.019 165.021 123.601 160.603 123.601H102.203C97.7849 123.601 94.2031 120.019 94.2031 115.601V98.8008Z" fill="#B1D7F9"/>
</g>
</g>
</svg>
